
<svg width="679px" height="349px" viewBox="140 372 679 349" version="1.1" xmlns="http://www.w3.org/2000/svg" xmlns:xlink="http://www.w3.org/1999/xlink">
    <!-- Generator: Sketch 40 (33762) - http://www.bohemiancoding.com/sketch -->
    <desc>Created with Sketch.</desc>
    <defs>
        <rect id="path-1" x="0.7" y="0.7" width="2.68779152" height="64.1176758"></rect>
        <path d="M3.0877915,26.209196 L3.0877915,64.517676 L1.0877915,64.517676 L1.0877915,7 L1.0877915,4.660676 C1.0877915,4.660676 0.8902606,2.2364722 1.0877915,2 C1.5569273,1.4383788 3.0877915,2.266396 3.0877915,2.266396 C3.0877915,2.266396 3.0877915,-7.3107239 3.0877915,26.209196 L3.0877915,26.209196 Z" id="path-3"></path>
        <rect id="path-5" x="0" y="0" width="308" height="322" rx="23"></rect>
    </defs>
    <g id="logo" stroke="none" stroke-width="1" fill="none" fill-rule="evenodd" transform="translate(140.000000, 372.000000)">
        <g id="Group">
            <g id="Rectangle-Clipped" stroke-width="8" stroke="#fff">
                <g id="Rectangle">
                    <rect id="path-1" x="0" y="0" width="679" height="349" rx="23"></rect>
                </g>
            </g>
            <g id="The-Office" transform="translate(28.000000, 91.000000)" font-family="HelveticaNeue-Bold, Helvetica Neue" fill="#fff" font-weight="bold">
                <text id="The" font-size="90">
                    <tspan x="0" y="88">The</tspan>
                </text>
                <text id="Office" font-size="110">
                    <tspan x="0" y="196">Office</tspan>
                </text>
            </g>
            <g id="Office-man" transform="translate(372.000000, 46.000000)">
                <path d="M81.5,17.25 C81.5,7.71937483 74.004375,0 64.75,0 C55.4956248,0 48,7.71937483 48,17.25 C48,26.780625 55.4956248,34.5 64.75,34.5 C74.004375,34.5 81.5,26.780625 81.5,17.25 L81.5,17.25 Z" id="Combined-Shape" fill="#fff"></path>
                <path d="M54.7252842,228 C54.7252842,228 50.7516412,228.467798 48,226 C45.1765465,223.467798 44,213 44,213 L43,198 L-5.68434189e-14,198 L1,137 L16,136 C16,136 15,126 19,125 C23,124 23,115 23,115 C23,115 24,65 24,60 C24,55 29,48 29,48 C29,48 31,39 65,39 C83.5631067,39 90.1959355,39.4811738 97,43 C99.1188576,44.0957997 103.058343,45.5758563 105,49 C108.243339,54.7196806 109,63 109,63 C109,63 111,77.7734076 111,87 C111,95.4400742 109,116 109,116 L107,127 C107,127 103.454964,128.858857 102,129 C99.7922394,129.214171 96.2484308,127.745292 96,127 C94,121 93,111 93,111 L93,72 L89,73 L87,219 C87,219 89,228 79,228 C69,228 70,217 70,217 L68,137 L67,135 L65,138 L62,218 C62,218 62.3214775,222.185852 60,225 C58.9464927,226.277086 59.7927618,226.253306 58,227 C57.1800244,227.341524 52.9994806,227.875065 52,228" id="Path-2" stroke="#fff" fill="#fff"></path>
                <path d="M35,133.381308 L35,137 L23.5045993,137 L23.5045993,131.566771 L23.5045993,131.345794 C23.5045993,131.345794 22.3692508,131.1168 23.5045993,131.094462 C26.2010511,131.04141 35,131.119626 35,131.119626 C35,131.119626 35,130.214953 35,133.381308 L35,133.381308 Z" id="Path-3" fill-opacity="0" fill="#fff"></path>
                <g id="Path-3" transform="translate(40.000000, 69.000000)">
                    <g id="path-3-link" transform="translate(1.000000, 1.000000)" fill="#fff">
                        <path d="M2.0877915,25.209196 L2.0877915,63.517676 L0.0877915,63.517676 L0.0877915,6 L0.0877915,3.660676 C0.0877915,3.660676 -0.1097394,1.2364722 0.0877915,1 C0.5569273,0.4383788 2.0877915,1.266396 2.0877915,1.266396 C2.0877915,1.266396 2.0877915,-8.3107239 2.0877915,25.209196 L2.0877915,25.209196 Z" id="path-3"></path>
                    </g>
                    <g id="Clipped" transform="translate(-0.000000, 0.000000)">
                        <mask id="mask-2" fill="white">
                            <use xlink:href="#path-1"></use>
                        </mask>
                        <g id="Rectangle-path"></g>
                        <g id="path-3-link" mask="url(#mask-2)" stroke-opacity="1" fill="#34515e" stroke-width="0.6">
                            <g transform="translate(1.000000, 1.000000)" id="path-3">
                                <path d="M2.0877915,25.209196 L2.0877915,63.517676 L0.0877915,63.517676 L0.0877915,6 L0.0877915,3.660676 C0.0877915,3.660676 -0.1097394,1.2364722 0.0877915,1 C0.5569273,0.4383788 2.0877915,1.266396 2.0877915,1.266396 C2.0877915,1.266396 2.0877915,-8.3107239 2.0877915,25.209196 L2.0877915,25.209196 Z"></path>
                            </g>
                        </g>
                        <mask id="mask-4" fill="white">
                            <use xlink:href="#path-3"></use>
                        </mask>
                        <g id="path-3"></g>
                    </g>
                </g>
            </g>
            <g id="Sitting-man" transform="translate(356.000000, 14.000000)">
                <path d="M258.75,116.5 C268.004375,116.5 275.5,108.780625 275.5,99.25 C275.5,89.7193748 268.004375,82 258.75,82 C249.495625,82 242,89.7193748 242,99.25 C242,108.780625 249.495625,116.5 258.75,116.5 L258.75,116.5 L258.75,116.5 Z" id="Fill-2" fill="#fff"></path>
                <g id="Rectangle-Clipped">
                    <mask id="mask-6" fill="white">
                        <use xlink:href="#path-5"></use>
                    </mask>
                    <g id="path-5"></g>
                    <g id="Rectangle" mask="url(#mask-6)" stroke="#fff" stroke-width="8">
                        <rect id="path-5" x="0" y="0" width="308" height="322" rx="23"></rect>
                    </g>
                </g>
                <path d="M249,128.020408 C250,127.020408 257,124.020408 257,124.020408 C257,124.020408 271,123.020408 279,135.020408 L276,205.020408 C276,205.020408 264,198.020408 260,200.020408 C260,200.020408 261,199.020408 252,200.020408 C243,201.020408 241,202.020408 241,202.020408 L242,185 C242,185 250.326528,173.845247 255,168 C259.659861,162.171778 269,150 269,150 C269,150 269.792421,148.023534 270,146 C270.194964,144.099446 269.905981,142.327631 267,137 C266.298342,135.713626 263,134.696715 262,134.696715 C261.394362,134.696715 260.1533,134.474586 259,134.696715 C258.249026,134.841355 258,135.020408 257,135.020408 C256.615399,135.020408 255.322558,135.710665 255,136 C254.10178,136.805705 253.283656,137.938478 252,139 C246.876731,143.236697 242,149.020408 242,149.020408 C242,149.020408 242.884232,140.6202 244.652697,134.696715 C245.543905,131.711608 248.686135,127.677341 250,127.020408" id="Path-4" fill="#fff"></path>
                <path d="M290.922116,160.266376 C290.686926,202.264933 290,295 290,295 L283,295 L283,248 L229,248 L229,296 L221,296 L221,237 L283,236 L285,137 L291,137 C291,140.081416 290.970694,151.591625 290.922116,160.266376 L290.922116,160.266376 Z" id="Path-5" fill="#fff"></path>
                <path d="M182,192 C183.464035,193.830044 185.071815,193.264423 186,194 C187.607779,195.274147 191,195 191,195 L195,195 L210,195 L227,192 C227,192 235,190 234,189 C233.588504,188.588504 236.292346,186.603816 239,184 C242.872365,180.27614 264.601876,152.454999 265,152 C266.175814,150.656213 269,147 268,143 C267.596338,141.385353 267.29787,140.461147 266,139 C264.845158,137.699875 261.742945,135.751008 260,136 C259.144464,136.122219 257.842756,136.643592 257,137 C250.947319,139.559727 246,147 246,147 L240,154 C240,154 233.511151,162.258928 233,163 C230.848035,166.119943 228,170 228,170 L226,172 L223,174 L195,182 C195,182 188.040574,183.855847 184.234564,185.987409 C182.452928,186.985217 181.362295,190.043442 182,191" id="Path-6" fill="#fff"></path>
                <path d="M277,216 C277,216.884623 276.864743,217.72094 276.620819,218.5099 C274.383097,225.747687 263,229 263,229 L251,231 L229,231 C229,231 216,234 215,233 L205,263 L196,288 C196,288 192,300 184,296 C176,292 180,295 178,286 L185,261 L196,222 C196,222 197,212 211,209 L252,202 L267,202 C267,202 278,208 277,215" id="Path-7" fill="#fff"></path>
                <polyline id="Path-8" fill="#fff" points="144 207 144 225 144 295 155 295 155 206 214 206 214 199 120 199 120 206 144 206"></polyline>
            </g>
        </g>
    </g>
</svg>
